<?xml version="1.0" encoding="UTF-8"?> <!-- Generator: Adobe Illustrator 16.0.0, SVG Export Plug-In . SVG Version: 6.00 Build 0) --> <svg xmlns="http://www.w3.org/2000/svg" xmlns:xlink="http://www.w3.org/1999/xlink" version="1.1" id="Layer_1" x="0px" y="0px" width="1024px" height="1024px" viewBox="0 0 1024 1024" xml:space="preserve"> <title>basket</title> <g id="icomoon-ignore"> </g> <path fill="#333333" d="M886.366,825.806c-3.67,36.703-19.269,66.982-46.796,90.839c-27.527,23.857-59.643,35.785-96.345,35.785 H275.269c-36.703,0-68.817-11.928-96.344-35.785c-27.526-23.856-43.125-54.136-46.796-90.839L49.548,302.795h203.699v143.141h49.548 V302.795h412.903v143.141h44.043V302.795h209.204L886.366,825.806z M302.796,253.247c0-55.054,20.187-102.768,60.56-143.14 c40.372-40.373,89.003-60.559,145.892-60.559s105.52,20.187,145.892,60.559c40.373,40.373,60.56,88.086,60.56,143.14H302.796 L302.796,253.247z M974.452,253.247h-214.71c0-44.043-11.011-86.251-33.032-126.624s-52.301-71.57-90.839-93.591 C597.333,11.011,555.125,0,509.247,0s-88.086,11.011-126.624,33.032c-38.538,22.021-69.735,53.218-93.591,93.591 c-23.856,40.373-35.785,82.581-35.785,126.624H49.548c-14.681,0-26.609,4.587-35.785,13.763C4.588,276.186,0,288.114,0,302.795 l82.581,534.022c7.341,47.713,29.362,87.168,66.065,118.365c36.703,31.198,78.911,46.796,126.624,46.796h467.957 c47.714,0,89.922-15.598,126.625-46.796c36.702-31.197,58.724-70.652,66.064-118.365l82.581-528.517 c0-11.01-3.67-22.021-11.011-33.032s-18.352-18.352-33.032-22.022H974.452z"></path> </svg> 